<svg xmlns="http://www.w3.org/2000/svg" viewBox="0 0 141.33 173.76"><defs><style>.cls-1{fill:#2f2f2f;}.cls-2{fill:none;stroke:#2f2f2f;stroke-linecap:round;stroke-linejoin:round;stroke-width:4.91px;}</style></defs><title>confirmed</title><g id="Layer_2" data-name="Layer 2"><g id="Layer_1-2" data-name="Layer 1"><path class="cls-1" d="M18.33,88.09a44.46,44.46,0,0,1,1-7.52c.93-4.31,3-13.6,10.8-20.29A28.87,28.87,0,0,1,39.27,55a12.63,12.63,0,0,1-1.64,5.24,12.77,12.77,0,0,1-5.23,4.91A62.41,62.41,0,0,0,72.65,53.73,7.81,7.81,0,0,1,72.32,58a8,8,0,0,1-3.93,4.25A87.3,87.3,0,0,0,93.92,60.6a87,87,0,0,0,24.87-9.49,102.24,102.24,0,0,0,5.56,35.67l5.57-2c.65-2.26,1.62-5.78,2.61-10.14,4.08-17.88,6.52-28.6,1.64-37.64-1.48-2.75-4.75-7.39-12.43-11.12A35.33,35.33,0,0,0,109.3,9.55a33.91,33.91,0,0,0-11.13-4.9C88.29,2,74.08-1.87,55.3,1.05A92.67,92.67,0,0,0,13.42,19,10.37,10.37,0,0,1,19,20,10.13,10.13,0,0,1,22.58,23,40.71,40.71,0,0,0,12.11,35.08a41.35,41.35,0,0,0-5.24,21.6,8.75,8.75,0,0,1,3.6-4.26,8.42,8.42,0,0,1,2.62-1c-.48,4.7-.83,9.73-1,15-.19,6.68,0,12.92.33,18.66Z"/><path class="cls-2" d="M136.13,90.71c-.52-.7-3.71-5-8.18-4.58a8.54,8.54,0,0,0-5.56,3.27,59.6,59.6,0,0,1-15.71,13.09c-13.91,8-27.21,7.92-35.72,7.86h-.28c-8.54.06-21.91.11-35.88-7.86A59.63,59.63,0,0,1,19,89.4a8.6,8.6,0,0,0-5.59-3.27c-4.49-.42-7.7,3.88-8.22,4.58-5.15,6.89-2.9,20.2,5.26,26.18A18,18,0,0,0,19,120.16a64,64,0,0,0,3.61,15.38c2.26,6.1,8,21.52,23.67,30.11a48,48,0,0,0,24.52,5.63,47.64,47.64,0,0,0,24.41-5.63c15.62-8.59,21.31-24,23.56-30.11a64.37,64.37,0,0,0,3.6-15.38,18,18,0,0,0,8.51-3.27C139,110.91,141.26,97.6,136.13,90.71Z"/><path class="cls-2" d="M107.09,102.26c1.23,5.7,2.33,11.78,3.19,18.23a231.87,231.87,0,0,1,2,28.71h0"/><path class="cls-2" d="M29.3,149.45a218.75,218.75,0,0,1,2.14-29c.9-6.37,2-12.38,3.31-18"/><path class="cls-2" d="M40.74,119.58a101.67,101.67,0,0,0,59.89,0"/><path class="cls-2" d="M40.74,119.58a101.67,101.67,0,0,0,59.89,0"/><path class="cls-2" d="M40.74,135.29a101.67,101.67,0,0,0,59.89,0"/><path class="cls-2" d="M40.74,151a101.67,101.67,0,0,0,59.89,0"/></g></g></svg>