<svg xmlns="http://www.w3.org/2000/svg" viewBox="0 0 143.06 169.8"><defs><style>.cls-1{fill:#fff;}.cls-2,.cls-3{fill:none;}.cls-3{stroke:#fff;stroke-linecap:round;stroke-linejoin:round;stroke-width:9.06px;}</style></defs><title>death</title><g id="Layer_2" data-name="Layer 2"><g id="Layer_1-2" data-name="Layer 1"><path class="cls-1" d="M54.92,115.25c-9.06,9.54-28.32,9.54-35,0-4.3-6.1-2.05-14.07-1.85-14.76,2.44-8.3,10.17-11.69,12.92-12.91,6-2.62,11.2-2.16,14.76-1.85,4.11.37,8,.7,11.07,3.69a13.8,13.8,0,0,1,3.69,7.38A21.69,21.69,0,0,1,54.92,115.25Z"/><path class="cls-2" d="M54.92,115.25c-9.06,9.54-28.32,9.54-35,0-4.3-6.1-2.05-14.07-1.85-14.76,2.44-8.3,10.17-11.69,12.92-12.91,6-2.62,11.2-2.16,14.76-1.85,4.11.37,8,.7,11.07,3.69a13.8,13.8,0,0,1,3.69,7.38A21.69,21.69,0,0,1,54.92,115.25Z"/><path class="cls-3" d="M136.1,102.34c-1.71,9.15-1.9,14.68-5.53,20.29-2,3.1-4.5,7-9.23,9.23-3.76,1.81-5.88,1.16-9.22,3.69-2.82,2.12-4.21,4.78-5.54,7.38-2.87,5.65-1.71,7.4-3.69,11.07-2.86,5.35-8.46,7.51-12.91,9.22-7.64,3-18.45,1.85-18.45,1.85s-10.81,1.11-18.45-1.85C48.63,161.51,43,159.35,40.16,154c-2-3.67-.81-5.42-3.69-11.07-1.33-2.6-2.71-5.26-5.53-7.38-3.34-2.53-5.46-1.88-9.23-3.69-4.72-2.27-7.21-6.13-9.22-9.23C8.85,117,8.67,111.49,7,102.34A107.87,107.87,0,0,1,5.11,69.13c.75-6.87,1.79-16.7,7.38-27.68C14,38.39,27,13.5,54.92,6.4A60.38,60.38,0,0,1,71.53,4.55,60.28,60.28,0,0,1,88.13,6.4c27.88,7.1,40.89,32,42.44,35.05,5.59,11,6.62,20.81,7.38,27.68A107.8,107.8,0,0,1,136.1,102.34Z"/><path class="cls-1" d="M123.19,115.25c-6.73,9.54-26,9.54-35.06,0-4.31-4.54-6.88-11.84-5.53-18.45a13.73,13.73,0,0,1,3.69-7.38c3.1-3,6.95-3.32,11.07-3.69,3.56-.31,8.8-.77,14.76,1.85,2.75,1.22,10.48,4.61,12.91,12.91C125.24,101.18,127.49,109.15,123.19,115.25Z"/><path class="cls-2" d="M123.19,115.25c-6.73,9.54-26,9.54-35.06,0-4.31-4.54-6.88-11.84-5.53-18.45a13.73,13.73,0,0,1,3.69-7.38c3.1-3,6.95-3.32,11.07-3.69,3.56-.31,8.8-.77,14.76,1.85,2.75,1.22,10.48,4.61,12.91,12.91C125.24,101.18,127.49,109.15,123.19,115.25Z"/><path class="cls-1" d="M76.14,118c-1.47-1.69-3.74-4.78-4.61-5.53-.88.75-3.15,3.84-4.61,5.53-2.37,2.73-9.25,10.66-7.38,18.45.24,1,1,4.12,3.69,5.54.42.22,3.22,1.62,5.53,0a6.94,6.94,0,0,0,2.77-3.84A6.84,6.84,0,0,0,74.3,142c2.3,1.62,5.11.22,5.53,0,2.71-1.42,3.45-4.54,3.69-5.54C85.39,128.68,78.51,120.75,76.14,118Z"/></g></g></svg>