<svg width="91" height="107" viewBox="0 0 91 107" fill="none" xmlns="http://www.w3.org/2000/svg">
<path d="M85.5678 75.2072C78.9346 62.6041 72.3014 64.5941 65.005 63.9308C65.6683 65.9207 65.6683 67.9107 65.6683 70.5639C76.2813 73.2172 78.9346 85.8202 78.9346 93.1167V99.7498H65.6683V93.1167H72.3014C72.3014 93.1167 72.3014 76.5338 62.3517 76.5338C52.402 76.5338 52.402 92.4534 52.402 93.1167H59.0351V99.7498H45.7688V93.1167C45.7688 85.8202 48.4221 72.5539 59.0351 70.5639C59.0351 66.584 58.3718 63.2675 57.7085 61.9408C56.3819 61.2775 55.0552 59.9509 55.0552 57.9609C55.0552 53.981 60.3618 55.3077 64.3417 48.0112C64.3417 48.0112 70.3115 32.7549 68.3215 19.4886H61.6884C61.6884 18.162 62.3517 17.4987 62.3517 16.172C62.3517 14.8454 62.3517 14.1821 61.6884 12.8554H66.9949C65.005 6.22229 58.3718 0.252441 45.7688 0.252441C33.1658 0.252441 26.5326 6.22229 23.8794 13.5188H29.1859C29.1859 14.8454 28.5226 15.5087 28.5226 16.8353C28.5226 18.162 28.5226 18.8253 29.1859 20.1519H22.5527C21.2261 33.4182 26.5326 48.6745 26.5326 48.6745C30.5125 55.3077 35.8191 53.981 35.8191 58.6243C35.8191 61.9408 32.5025 63.2675 28.5226 63.9308C27.196 65.2574 25.8693 67.9107 25.8693 73.2172V81.177C29.8492 82.5036 32.5025 86.4835 32.5025 90.4634C32.5025 95.1066 27.8593 99.7498 22.5527 99.7498C17.2462 99.7498 12.603 95.1066 12.603 89.8001C12.603 85.1569 15.2563 81.8403 19.2362 80.5137V72.5539C19.2362 69.2373 19.8995 66.584 20.5628 63.9308C15.9196 64.5941 10.6131 66.584 5.96984 75.2072C1.98995 82.5036 0 106.383 0 106.383H90.8743C91.5376 106.383 89.5477 82.5036 85.5678 75.2072ZM35.8191 16.8353C35.8191 11.5288 40.4623 6.8856 45.7688 6.8856C51.0753 6.8856 55.7185 11.5288 55.7185 16.8353C55.7185 22.1419 51.0753 26.7851 45.7688 26.7851C40.4623 26.7851 35.8191 22.1419 35.8191 16.8353Z" fill="white"/>
<path d="M25.8695 89.8C25.8695 90.6796 25.5201 91.5232 24.8981 92.1452C24.2761 92.7671 23.4325 93.1166 22.5529 93.1166C21.6733 93.1166 20.8297 92.7671 20.2077 92.1452C19.5858 91.5232 19.2363 90.6796 19.2363 89.8C19.2363 88.9204 19.5858 88.0768 20.2077 87.4548C20.8297 86.8328 21.6733 86.4834 22.5529 86.4834C23.4325 86.4834 24.2761 86.8328 24.8981 87.4548C25.5201 88.0768 25.8695 88.9204 25.8695 89.8Z" fill="white"/>
</svg>
