<svg xmlns="http://www.w3.org/2000/svg" viewBox="0 0 231.66 229.02"><defs><style>.cls-1{fill:#373435;}.cls-2{fill:#264961;}.cls-3{fill:#ed3237;}</style></defs><title>logo</title><g id="Layer_2" data-name="Layer 2"><g id="Layer_1-2" data-name="Layer 1"><path class="cls-1" d="M86.24,210.14a36.76,36.76,0,0,1-1.4-5.13c-.22-1.28-.17-1.47-.46-3.72a53.19,53.19,0,0,0-.94-5.59c-.43-1.81-.51-1.44-1.86-5.6-1-3.12-1.13-3.84-1.86-5.59a31.22,31.22,0,0,0-1.87-3.72,42,42,0,0,1-1.86-4.2,57.25,57.25,0,0,0-2.8-7,5.06,5.06,0,0,0-1.86-2.33,4.77,4.77,0,0,0-3.26-.46c-.74.16-.83.47-1.17.7,3,9.24,5.6,18.48,8.62,27.72,2,5.93,3.9,12.3,5.6,19.1q1.3,5.26,2.32,10.25a5.47,5.47,0,0,0,3.73-1.86,4.84,4.84,0,0,0,.93-2.33C88.45,218.25,88.12,216.19,86.24,210.14Zm-13.51-28q-1.87-5.12-3.73-10.25l3.73-1.4q1.86,5.13,3.73,10.26Z" transform="translate(0)"/><path class="cls-1" d="M48,187.86a24.18,24.18,0,0,0,.54,6.9c.22.94.61,2.35,1.4,5.13.57,2.05.65,2.26.93,3.26,0,0,2.86,10.25,4.19,12.11a4.53,4.53,0,0,0,.93.94,2.49,2.49,0,0,0,.34.2,19.76,19.76,0,0,0-.1-2,16.59,16.59,0,0,0-1.3-4.67c-.3-.77-.65-1.64-1-2.74-.47-1.39-.94-3.26-1.87-7-.56-2.25-1-3.83-1.86-7a19.44,19.44,0,0,0-1.38-3.69C48.51,188.79,48.25,188.32,48,187.86Z" transform="translate(0)"/><path class="cls-1" d="M82.05,222.72c-.81-3.95-1.92-8.8-3.73-15.38-.9-3.27-1.84-6.37-3.73-12.58s-3-10-4.66-14.91-3-8.93-4.19-12.11L49,172.4l-.25.53a19.59,19.59,0,0,1,1.38,2.15A25.8,25.8,0,0,1,52.52,182c.13.49.26,1,.4,1.57a2.3,2.3,0,0,0,.07.26s0,0,0,.06h0v0c.22.52.63,2,1.76,6.18,1.79,6.6,3.21,12,3.73,14C62,217.31,62.64,220,63.18,224.56c.15,1.35.28,2.72.37,4.08l.33.14c1.31.48,2.49.11,3.72,0a27.29,27.29,0,0,0,7-1.87,43,43,0,0,1,7.92-1.86C82.41,224.49,82.25,223.69,82.05,222.72ZM55,187.31c-1.08-3.58-2.17-7.14-3.26-10.72l14.91-4.19q1.86,5.59,3.73,11.18Z" transform="translate(0)"/><path class="cls-1" d="M62.71,224.61c-.53-4.57-1.2-7.21-4.65-20.47-.53-2-1.93-7.38-3.73-14-1-3.84-1.47-5.35-1.64-5.91-.08-.06-.12-.23-.22-.61-.15-.56-.28-1.08-.4-1.57a24.56,24.56,0,0,0-2.38-6.76,20.4,20.4,0,0,0-1.18-1.88A19.65,19.65,0,0,0,48,186.84c0,.09,0,.17,0,.24a17.2,17.2,0,0,1,1.16,2,20.08,20.08,0,0,1,1.42,3.77c.87,3.15,1.3,4.73,1.87,7,.92,3.71,1.38,5.58,1.85,7,.37,1.09.71,2,1,2.72a16.51,16.51,0,0,1,1.33,4.79,16.11,16.11,0,0,1,.1,2.31l.14,0a28.78,28.78,0,0,0,4.19,9.79,7,7,0,0,0,2,1.94C63,227.13,62.86,225.86,62.71,224.61ZM50.36,188.24a17.52,17.52,0,0,1-.93-11.18c1.25,3.41,2.48,6.83,3.73,10.25Z" transform="translate(0)"/><path class="cls-1" d="M163.59,166.81a4.76,4.76,0,0,0-3.26.46,5,5,0,0,0-1.87,2.33,55.46,55.46,0,0,0-2.79,7,42.47,42.47,0,0,1-1.87,4.2,31.47,31.47,0,0,0-1.86,3.72c-.74,1.75-.85,2.47-1.87,5.59-1.34,4.16-1.43,3.79-1.86,5.6a53.32,53.32,0,0,0-.93,5.59c-.3,2.25-.24,2.44-.47,3.72a35.42,35.42,0,0,1-1.4,5.13c-1.87,6.05-2.21,8.11-1.86,10.25a4.94,4.94,0,0,0,.93,2.33,5.48,5.48,0,0,0,3.73,1.86c.69-3.32,1.45-6.74,2.33-10.25,1.7-6.8,3.6-13.17,5.59-19.1,3-9.24,5.59-18.48,8.62-27.72C164.42,167.28,164.33,167,163.59,166.81Zm-4.66,15.37-3.73-1.39q1.86-5.13,3.73-10.26l3.72,1.4Z" transform="translate(0)"/><path class="cls-1" d="M183.7,187.86a24.18,24.18,0,0,1-.54,6.9c-.22.94-.62,2.35-1.4,5.13-.58,2.05-.65,2.26-.93,3.26,0,0-2.86,10.25-4.2,12.11a4.27,4.27,0,0,1-.93.94,3.24,3.24,0,0,1-.33.2,15.4,15.4,0,0,1,.1-2,16,16,0,0,1,1.3-4.67c.3-.77.64-1.64,1-2.74.48-1.39.95-3.26,1.88-7,.56-2.25,1-3.83,1.86-7a19.44,19.44,0,0,1,1.38-3.69C183.14,188.79,183.41,188.32,183.7,187.86Z" transform="translate(0)"/><path class="cls-1" d="M182.69,172.4l-16.77-4.66c-1.15,3.18-2.6,7.29-4.2,12.11s-2.72,8.55-4.66,14.91-2.82,9.31-3.72,12.58c-1.81,6.58-2.92,11.43-3.73,15.38-.2,1-.36,1.77-.47,2.33a42.76,42.76,0,0,1,7.92,1.86,27.4,27.4,0,0,0,7,1.87c1.24.11,2.41.48,3.73,0l.33-.14c.08-1.36.22-2.73.37-4.08.53-4.61,1.2-7.25,4.67-20.54.52-2,1.93-7.38,3.73-14,1.13-4.16,1.53-5.66,1.75-6.18a0,0,0,0,1,0,0h0l0-.06.07-.26c.14-.55.27-1.08.4-1.57a25.43,25.43,0,0,1,2.41-6.87,23.08,23.08,0,0,1,1.38-2.15C182.85,172.74,182.77,172.56,182.69,172.4Zm-6.06,14.91-15.37-3.73L165,172.4l14.91,4.19C178.81,180.17,177.72,183.73,176.63,187.31Z" transform="translate(0)"/><path class="cls-1" d="M184.55,179.85a19.47,19.47,0,0,0-1.41-6.42,20.4,20.4,0,0,0-1.18,1.88,24.88,24.88,0,0,0-2.37,6.76c-.13.49-.26,1-.4,1.57-.1.38-.14.55-.22.61-.17.56-.6,2.07-1.65,5.91-1.79,6.6-3.2,12-3.73,14-3.45,13.26-4.12,15.9-4.65,20.47-.14,1.25-.26,2.52-.35,3.78a7.06,7.06,0,0,0,2-1.94,29.19,29.19,0,0,0,4.19-9.79l.13,0a19.65,19.65,0,0,1,.1-2.31,17.16,17.16,0,0,1,1.33-4.79c.3-.76.64-1.63,1-2.72.46-1.37.93-3.24,1.85-7,.56-2.28,1-3.86,1.87-7a19.16,19.16,0,0,1,1.41-3.77,18.77,18.77,0,0,1,1.16-2,2.32,2.32,0,0,0,0-.24A19.37,19.37,0,0,0,184.55,179.85Zm-1.86,2.8a17.32,17.32,0,0,1-1.4,5.59l-2.79-.93,3.72-10.25A17.05,17.05,0,0,1,182.69,182.65Z" transform="translate(0)"/><path class="cls-1" d="M115.83,208.56h0" transform="translate(0)"/><path class="cls-1" d="M115.83,159.12a21.43,21.43,0,1,0,21.43,21.43A21.5,21.5,0,0,0,115.83,159.12ZM121,180.55a5.13,5.13,0,1,1-5.12-5.09A5.18,5.18,0,0,1,121,180.55Zm-20.52,7.76A17.24,17.24,0,0,1,114.2,163.4v8a9.29,9.29,0,0,0-6.89,12.92Zm15.4,9.47a17.52,17.52,0,0,1-14.23-7.51l6.9-4a9.33,9.33,0,0,0,14.65,0l6.91,4A17.54,17.54,0,0,1,115.83,197.78Zm8.51-13.45a9.15,9.15,0,0,0,.81-3.78,9.29,9.29,0,0,0-7.69-9.14v-8a17.22,17.22,0,0,1,13.76,24.91Z" transform="translate(0)"/><path class="cls-1" d="M115.83,208.56h0" transform="translate(0)"/><path class="cls-1" d="M115.83,209.71a2.06,2.06,0,1,0,2.1,2.06A2.29,2.29,0,0,0,115.83,209.71Zm0,3.63a1.58,1.58,0,1,1,1.62-1.57A1.76,1.76,0,0,1,115.83,213.34Z" transform="translate(0)"/><path class="cls-1" d="M140.52,160.05c-6-2.63-9-4-11.65-6.52a24.35,24.35,0,0,0-7-5.59,20.26,20.26,0,0,0-2.58-1.06,3.14,3.14,0,0,1-1.76-1.46l-1-1.78a.81.81,0,0,0-1.42,0l-1,1.78a3.13,3.13,0,0,1-1.77,1.46,20.87,20.87,0,0,0-2.58,1.06c-3.58,1.77-5.41,4-7,5.59-2.62,2.57-5.63,3.89-11.65,6.52a67.14,67.14,0,0,1-13,4.19,32.7,32.7,0,0,1,4,14.68,4.87,4.87,0,0,0,1.86-1.4,5.6,5.6,0,0,0,.93-4.66c.33.74.65,1.51.93,2.33a32.67,32.67,0,0,1,1.87,10.25,3.3,3.3,0,0,0-1.87.47c-.83.51-.7,1.4-1.39,1.86a2.51,2.51,0,0,1-2.33,0c.49,1.48,1,3,1.39,4.66A76.61,76.61,0,0,1,85.77,206H88.1a30.2,30.2,0,0,0,0-5.13,31.69,31.69,0,0,0-1.86-8.39A27.92,27.92,0,0,1,89,208.28a74.7,74.7,0,0,1,9.78,1.39,76,76,0,0,1,9.26,2.57,3.61,3.61,0,0,1,2.24,2.33,6.34,6.34,0,0,0,1.55,2.56,7,7,0,0,0,4,1.86,7,7,0,0,0,4-1.86,6.58,6.58,0,0,0,1.55-2.56,3.62,3.62,0,0,1,2.23-2.33,77,77,0,0,1,9.26-2.57,74.83,74.83,0,0,1,9.79-1.39,28,28,0,0,1,2.79-15.85,31.69,31.69,0,0,0-1.86,8.39,32.43,32.43,0,0,0,0,5.13h2.33a78.49,78.49,0,0,1,2.33-13.52c.43-1.62.9-3.18,1.4-4.66a2.51,2.51,0,0,1-2.33,0c-.7-.46-.57-1.35-1.4-1.86a3.27,3.27,0,0,0-1.86-.47,32.92,32.92,0,0,1,1.86-10.25c.29-.82.61-1.59.93-2.33a5.64,5.64,0,0,0,.93,4.66,4.89,4.89,0,0,0,1.87,1.4,32.85,32.85,0,0,1,.46-4.66,33.25,33.25,0,0,1,3.5-10A67.21,67.21,0,0,1,140.52,160.05ZM115.83,215a3.21,3.21,0,1,1,0-6.42h0a3.21,3.21,0,1,1,0,6.42Zm0-11.14a23.29,23.29,0,0,1,0-46.58h.09a23.29,23.29,0,0,1,0,46.58Z" transform="translate(0)"/><path class="cls-1" d="M115.83,208.56Z" transform="translate(0)"/><path class="cls-1" d="M80.88,126a58.29,58.29,0,0,1-.46,8.38c-.38,2.93-.85,4.74-1.87,11.19a23.33,23.33,0,0,0-.46,5.59c.12,2,.26,4.36,1.86,6.52l0,.06a6.9,6.9,0,0,0,7.68,2.28c6.68-2.23,16.68-6.9,24-16.78a42.66,42.66,0,0,0,3.18-5,1.16,1.16,0,0,1,2,0,43.89,43.89,0,0,0,3.17,5c7.28,9.88,17.29,14.55,24,16.78a6.89,6.89,0,0,0,7.67-2.28l.05-.06c1.6-2.16,1.74-4.5,1.86-6.52a23.41,23.41,0,0,0-.47-5.59c-1-6.45-1.48-8.26-1.86-11.19a58,58,0,0,1-.47-8.38c-1.55-.32-3.1-.62-4.66-.93v4.19l-2.37-2.38a1.47,1.47,0,0,0-1.34-.42h0a2.63,2.63,0,0,0-1.4.93c-1.12,1.33-4.54,2.1-5.59,2.33a16.67,16.67,0,0,1-7.46,0,16.21,16.21,0,0,1-3.73-1.39,20.53,20.53,0,0,0,5.6.46,21.82,21.82,0,0,0,12.11-4.66c-1.34-.23-2.74-.54-4.19-.93-3.25-.87-6.14-2.1-13.52-6.06-2.17-1.17-5-2.74-8.38-4.66A36.38,36.38,0,0,0,106,107.4C93.11,103,81.4,107.32,77.39,109a95.26,95.26,0,0,1,2.33,9.32C80.25,121.07,80.62,123.64,80.88,126Zm7.7-3a6.13,6.13,0,0,0,1.91,1.56c5.17,2.78,9.42,4.15,11.36,4.25.93,0,1.86,0,1.86,0a20.42,20.42,0,0,0,3.73-.48,16,16,0,0,1-3.73,1.39,16.62,16.62,0,0,1-7.45,0c-1.05-.23-4.47-1-5.59-2.33a2.63,2.63,0,0,0-1.4-.93h0a1.41,1.41,0,0,0-1.29.37l-2.43,2.43v-4.19a10,10,0,0,0-.23-2.1c-.17-.77-.24-1.57-.47-2.33a1.32,1.32,0,0,1,0-.93.85.85,0,0,1,.47-.47c.14,0,.52-.07,1.4.93s1.05,1.78,1.86,2.8Zm17.23,21.89c-2,2.4-3.56,4.31-6.52,5.59a12.25,12.25,0,0,1-7.92.93A11.92,11.92,0,0,1,83,143.51c-1.07-3.38-.9-8.41,1.86-10.25a6.47,6.47,0,0,1,2.8-.93,8.49,8.49,0,0,1,4.19.93c1.83.69,3.71.77,7.46.93,2.64.11,5.28.69,7.92.47a2.39,2.39,0,0,1,1.86.46,1.81,1.81,0,0,1,.47.93C109.67,136.72,109.87,140,105.81,144.91Zm42.87-1.4a11.93,11.93,0,0,1-8.39,7.92,12.23,12.23,0,0,1-7.92-.93c-3-1.28-4.54-3.19-6.52-5.59-4.06-4.92-3.86-8.19-3.73-8.86a1.77,1.77,0,0,1,.46-.93,2.41,2.41,0,0,1,1.87-.46c2.63.22,5.28-.36,7.92-.47,3.75-.16,5.62-.24,7.45-.93a8.56,8.56,0,0,1,4.2-.93,6.44,6.44,0,0,1,2.79.93C149.57,135.1,149.74,140.13,148.68,143.51Z" transform="translate(0)"/><path class="cls-1" d="M74.82,110.66l-4.19,1.86A31.37,31.37,0,0,0,73,126a31.05,31.05,0,0,0,5.59,8.85,47.14,47.14,0,0,0,0-10.25A47.85,47.85,0,0,0,74.82,110.66Z" transform="translate(0)"/><path class="cls-1" d="M153.57,126.5v8.39a21.54,21.54,0,0,0,6.06-10.25,10.17,10.17,0,0,1-2.8,1.4A10,10,0,0,1,153.57,126.5Z" transform="translate(0)"/><path class="cls-2" d="M71.1,106a61.77,61.77,0,0,1,7.45-2.33c3.57-.87,11.66-2.83,20.5-1.4,6.66,1.08,11.5,3.73,20,8.39A90.8,90.8,0,0,0,132.37,117c2.32.86,4.27,1.47,5.59,1.86a69.46,69.46,0,0,1-6.52-7.45,86.45,86.45,0,0,1-7-11.18c-2.49-4.25-7-9.91-15.84-15.38a31.08,31.08,0,0,1,12.11,6.06c2.42,2,3.69,3.74,10.72,14,6.49,9.46,7.49,11,10.25,13,2.5,1.83,6.91,5.06,12.58,4.2.61-.1,6.33-1.07,9.32-6.06s1.08-10.82,0-14c-1.43-4.15-3.62-6.71-7.92-11.65-1.62-1.85-4.38-4.86-12.12-11.65-6.06-5.31-9.09-8-11.65-9.78-3.3-2.34-11.57-8.18-22.36-10.25C95.29,56,83.23,61.09,77.85,63.83a52.77,52.77,0,0,1,13.52-3.26C110,58.66,124.49,67.47,130,71.29a77,77,0,0,0-21-7.46c-15.65-3.07-25.91.1-28.42.94-9,3-11,6.89-11.65,8.38a15.78,15.78,0,0,0-.93,5.59,31.85,31.85,0,0,0,1.86,11.65A48.89,48.89,0,0,1,71.8,96a16.53,16.53,0,0,1,.46,6.06A14,14,0,0,1,71.1,106Z" transform="translate(0)"/><path class="cls-3" d="M69.07,66.82a1.68,1.68,0,0,0,.16-1.38c-1.57-5-5-18.71.7-33.76A50.66,50.66,0,0,1,86.24,9.78,49.73,49.73,0,0,1,110.94,0,68.58,68.58,0,0,0,80.18,11.18a67.37,67.37,0,0,0-20,21,64.79,64.79,0,0,0-8.86,25.63,62.61,62.61,0,0,0,4.2,30.28A69.54,69.54,0,0,0,23.8,103C18.45,107.49,1,123.64,0,149.1a60.61,60.61,0,0,0,5.59,27.49A49.52,49.52,0,0,1,3.3,151.9c.28-1.68,4.17-22.91,23.3-34a50.48,50.48,0,0,1,22.83-6.52,54.49,54.49,0,0,1,19.1,2.33,19.27,19.27,0,0,1,.47-7.46,16.44,16.44,0,0,0,.93-4.65,13.28,13.28,0,0,0-.46-3.73c-1.3-5-3.08-7.73-4.2-11.65-.8-2.83-2.09-7.34-.46-11.65C65.27,73.31,68,68.61,69.07,66.82Z" transform="translate(0)"/><path class="cls-3" d="M50.83,209.21l2.79,7a64.53,64.53,0,0,1-16.77-5.59A65.65,65.65,0,0,1,13.55,191a51.13,51.13,0,0,0,37.28,18.17Z" transform="translate(0)"/><path class="cls-3" d="M88.57,210.61l.93,2.32,4.2-1.39Z" transform="translate(0)"/><path class="cls-3" d="M55.49,117A62.54,62.54,0,0,0,70.4,164.48a4.79,4.79,0,0,1,4.66,5.59l3.73,2.79-3.27-10.25,6.06-.93A14.13,14.13,0,0,1,77.85,157a14.94,14.94,0,0,1-.93-10.25,52.27,52.27,0,0,1-5.12-11.18,50.06,50.06,0,0,1-1.87-7.92,46.7,46.7,0,0,1-.46-7.46C68.53,120.06,59.22,117.88,55.49,117Z" transform="translate(0)"/><path class="cls-3" d="M120.72,0a49.28,49.28,0,0,1,41,31.68c1.72,4.54,6.22,18.41.47,34a47.35,47.35,0,0,1-9.79,15.84,39.27,39.27,0,0,1,16.31,30.75,53.89,53.89,0,0,1,13.51-.93,51.17,51.17,0,0,1,22.84,6.52c19.13,11.11,23,32.34,23.29,34A49.4,49.4,0,0,1,226,176.59a60.61,60.61,0,0,0,5.59-27.49c-1-25.46-18.41-41.61-23.76-46.13a69.47,69.47,0,0,0-31.68-14.91,62.64,62.64,0,0,0,4.19-30.28,64.71,64.71,0,0,0-8.85-25.63,67.44,67.44,0,0,0-20-21A68.56,68.56,0,0,0,120.72,0Z" transform="translate(0)"/><path class="cls-3" d="M180.83,209.21l-2.8,7a64.29,64.29,0,0,0,16.77-5.59A65.55,65.55,0,0,0,218.1,191a51.13,51.13,0,0,1-37.27,18.17Z" transform="translate(0)"/><path class="cls-3" d="M143.09,210.61l-.94,2.32L138,211.54Z" transform="translate(0)"/><path class="cls-3" d="M176.17,117a62.54,62.54,0,0,1-14.91,47.53,4.79,4.79,0,0,0-4.66,5.59l-3.73,2.79q1.63-5.12,3.26-10.25l-6.06-.93A14,14,0,0,0,153.8,157a14.88,14.88,0,0,0,.93-10.25,39,39,0,0,0,6.53-23.3,5.5,5.5,0,0,0,2.79-1.86,5.07,5.07,0,0,0,.93-1.86Z" transform="translate(0)"/><path class="cls-3" d="M151,74.08l-2.8,3.27a101.12,101.12,0,0,0-9.32-7.92c-2.57-1.94-5.07-3.64-7.45-5.13a48.41,48.41,0,0,1,11.18,4.19A49.24,49.24,0,0,1,151,74.08Z" transform="translate(0)"/></g></g></svg>